<svg width="2003" height="1997" viewBox="0 0 2003 1997" fill="none" xmlns="http://www.w3.org/2000/svg">
<path d="M535.591 998.106C535.591 1065.8 480.549 1120.66 412.651 1120.66C344.753 1120.66 289.715 1065.79 289.715 998.106C289.715 930.417 344.757 875.548 412.651 875.548C480.549 875.548 535.591 930.421 535.591 998.106ZM1001.18 875.548C933.281 875.548 878.239 930.421 878.239 998.106C878.239 1065.8 933.281 1120.66 1001.18 1120.66C1069.08 1120.66 1124.11 1065.79 1124.11 998.106C1124.11 930.421 1069.08 875.548 1001.18 875.548ZM2002.36 998.106C2002.36 1549.35 1554.11 1996.21 1001.18 1996.21C448.243 1996.21 0 1549.35 0 998.106C0 446.868 448.243 0 1001.18 0C1554.11 0 2002.36 446.868 2002.36 998.106ZM689.259 998.106C689.259 845.809 565.417 722.351 412.655 722.351C259.889 722.351 136.051 845.813 136.051 998.106C136.051 1150.4 259.889 1273.86 412.655 1273.86C492.957 1273.86 535.595 1221.9 535.595 1221.9V1269.39H689.263V998.106H689.259ZM1277.79 998.106C1277.79 845.809 1153.95 722.351 1001.18 722.351C926.659 722.351 878.243 762.663 878.243 762.663L878.248 587.67H724.579V998.106C724.579 1150.4 848.421 1273.86 1001.18 1273.86C1153.95 1273.87 1277.79 1150.4 1277.79 998.106ZM1864 1033.21H1707.46C1692.32 1083.78 1645.36 1120.66 1589.71 1120.66C1521.81 1120.66 1466.77 1065.79 1466.77 998.106C1466.77 930.417 1521.81 875.548 1589.71 875.548C1645.36 875.548 1692.32 912.437 1707.46 963.004H1864C1846.69 827.298 1730.54 722.351 1589.71 722.351C1436.94 722.351 1313.1 845.813 1313.1 998.106C1313.1 1150.4 1436.94 1273.86 1589.71 1273.86C1730.53 1273.87 1846.69 1168.92 1864 1033.21Z" fill="black"/>
</svg>
