<svg width="19200" height="8960" viewBox="0 0 19200 8960" fill="none" xmlns="http://www.w3.org/2000/svg">
<g clip-path="url(#clip0_204_209)">
<path d="M5973.33 2560H4480C3970.78 2560 3482.42 2762.29 3122.36 3122.36C2762.29 3482.42 2560 3970.78 2560 4480C2560 4989.22 2762.29 5477.58 3122.36 5837.65C3482.42 6197.71 3970.78 6400 4480 6400H6150.4C6216.6 6400 6280.08 6373.7 6326.89 6326.89C6373.7 6280.08 6400 6216.6 6400 6150.4V1742.93C6400.45 1358.9 6527.73 985.761 6762.06 681.5C6996.39 377.24 7324.65 158.891 7695.84 60.3776C8067.02 -38.1353 8460.36 -11.2961 8814.72 136.725C9169.08 284.747 9464.64 545.662 9655.47 878.933L11520 4140.8V1742.93C11520.5 1358.9 11647.7 985.761 11882.1 681.5C12116.4 377.24 12444.7 158.891 12815.8 60.3776C13187 -38.1353 13580.4 -11.2961 13934.7 136.725C14289.1 284.747 14584.6 545.662 14775.5 878.933L16640 4140.8V0H17706.7L17920 213.333L18133.3 0H19200V7217.07C19199.5 7601.1 19072.3 7974.24 18837.9 8278.5C18603.6 8582.76 18275.4 8801.11 17904.2 8899.62C17533 8998.14 17139.6 8971.3 16785.3 8823.28C16430.9 8675.25 16135.4 8414.34 15944.5 8081.07L14080 4819.2V7217.07C14079.5 7601.1 13952.3 7974.24 13717.9 8278.5C13483.6 8582.76 13155.4 8801.11 12784.2 8899.62C12413 8998.14 12019.6 8971.3 11665.3 8823.28C11310.9 8675.25 11015.4 8414.34 10824.5 8081.07L8960 4819.2V7217.07C8960 7679.32 8776.37 8122.64 8449.51 8449.51C8122.64 8776.37 7679.32 8960 7217.07 8960H4480C3291.83 8960 2152.32 8488 1312.16 7647.84C471.999 6807.68 0 5668.17 0 4480C0 3291.83 471.999 2152.32 1312.16 1312.16C2152.32 471.999 3291.83 0 4480 0H5973.33V1066.67L5760 1280L5973.33 1493.33V2560Z" fill="#CC0000"/>
<path d="M5973.33 1280H4480C3631.31 1280 2817.37 1617.14 2217.26 2217.26C1617.14 2817.37 1280 3631.31 1280 4480C1280 5328.69 1617.14 6142.63 2217.26 6742.74C2817.37 7342.86 3631.31 7680 4480 7680H7217.07C7277.86 7680 7338.06 7668.03 7394.22 7644.76C7450.39 7621.5 7501.42 7587.4 7544.41 7544.41C7587.4 7501.42 7621.5 7450.39 7644.76 7394.22C7668.03 7338.06 7680 7277.86 7680 7217.07V1742.93C7680.18 1641.07 7713.94 1542.1 7776.07 1461.38C7838.2 1380.65 7925.23 1322.68 8023.65 1296.43C8122.08 1270.18 8226.41 1277.13 8320.49 1316.2C8414.56 1355.27 8493.13 1424.28 8544 1512.53L11936 7447.47C11986.9 7535.72 12065.4 7604.73 12159.5 7643.8C12253.6 7682.87 12357.9 7689.82 12456.3 7663.57C12554.8 7637.33 12641.8 7579.35 12703.9 7498.62C12766.1 7417.9 12799.8 7318.93 12800 7217.07V1742.93C12800.2 1641.07 12833.9 1542.1 12896.1 1461.38C12958.2 1380.65 13045.2 1322.68 13143.7 1296.43C13242.1 1270.18 13346.4 1277.13 13440.5 1316.2C13534.6 1355.27 13613.1 1424.28 13664 1512.53L17056 7447.47C17106.9 7535.72 17185.4 7604.73 17279.5 7643.8C17373.6 7682.87 17477.9 7689.82 17576.3 7663.57C17674.8 7637.33 17761.8 7579.35 17823.9 7498.62C17886.1 7417.9 17919.8 7318.93 17920 7217.07V0" stroke="white" stroke-width="20"/>
</g>
<defs>
<clipPath id="clip0_204_209">
<rect width="19200" height="8960" fill="white"/>
</clipPath>
</defs>
</svg>
