<svg width="18026" height="7239" viewBox="0 0 18026 7239" fill="none" xmlns="http://www.w3.org/2000/svg">
<path d="M2144.26 2969.29H4272.18V4684.7H2144.26V7229.22H0V0H4628.16L4775.51 1935.96H2144.26V2969.29Z" fill="black"/>
<path fill-rule="evenodd" clip-rule="evenodd" d="M8462.49 7225.13C6421.8 7270.89 4727.07 5663.33 4669.06 3626.86C4693.7 2650.4 5106.72 1723.87 5816.88 1051.82C6527.04 379.776 7476.06 17.4856 8454.25 44.927C9433.21 16.3815 10383.3 378.181 11094.3 1050.34C11805.4 1722.51 12219 2649.67 12243.6 3626.86C12190 5665.57 10497.2 7278.49 8454.25 7237.39L8462.49 7225.13ZM8462.49 1400.92C8104.28 1407.51 7816.21 1696.89 7811.81 2054.4V5064.54C7813.98 5233.91 7883.98 5395.3 8006.26 5512.73C8128.53 5630.21 8292.86 5693.84 8462.49 5689.44C8801.8 5687.84 9081.39 5423.13 9100.85 5084.96V2066.66C9088.15 1711.11 8802.31 1425.8 8446.09 1413.17L8462.49 1400.92Z" fill="black"/>
<path d="M14555.6 5383.11L15648.2 7225.13H18025.7L15734.1 3443.07L17780.2 4.08398H15406.8L14518.7 1523.45L13602.1 4.08398H11241L13348.5 3467.57L11146.9 7225.13H13491.7L14555.6 5383.11Z" fill="black"/>
</svg>
