<svg width="1315" height="171" viewBox="0 0 1315 171" fill="none" xmlns="http://www.w3.org/2000/svg">
<g clip-path="url(#clip0_204_177)">
<path d="M98.4014 17.5172C98.4014 3.446 84.7587 0 74.0188 0V2.01017C80.4047 2.01017 85.3393 4.02034 85.3393 9.18934C85.3393 12.061 83.3074 16.3685 76.6312 16.3685C71.6966 16.3685 60.9566 13.4968 53.1193 10.6252C43.8307 7.17917 35.4129 4.3075 28.1562 4.3075C13.9329 4.3075 3.7735 14.9327 3.7735 26.9937C3.7735 37.6189 11.6108 41.0649 14.5135 42.5007L15.094 41.0649C13.6427 39.629 11.6108 38.1932 11.6108 33.8857C11.6108 31.014 14.5135 26.1322 21.48 26.1322C27.8659 26.1322 36.574 29.0039 47.8945 32.4499C57.7637 35.3215 68.5036 37.3317 74.309 38.1932V60.0179L63.569 69.2072V69.7816L74.309 78.9709V109.411C68.5036 112.857 62.1177 113.718 56.6026 113.718C45.8626 113.718 36.574 110.846 28.7367 102.519L58.0539 88.4474V39.629L22.9313 55.136C25.834 45.9467 33.6713 39.629 41.5086 35.3215L40.6377 33.3114C19.1578 39.0547 0 58.8692 0 82.7041C0 110.846 23.5118 132.097 49.9264 132.097C78.3728 132.097 96.9501 109.411 96.9501 86.1501H95.789C91.4349 95.3394 85.049 103.667 77.2117 107.975V78.9709L88.5322 69.7816V69.2072L77.2117 60.0179V38.1932C87.9517 38.1932 98.4014 31.014 98.4014 17.5172ZM36.2837 95.3394L27.5756 99.6469C22.641 93.3292 19.7383 84.7142 19.7383 72.9404C19.7383 68.0586 19.7383 62.3152 21.1897 58.0077L36.2837 51.69V95.3394ZM112.044 111.708L102.755 118.887L104.207 120.323L108.561 116.877L124.235 130.948L145.715 116.877L145.135 115.441L139.329 118.887L132.073 111.708V63.4639L137.878 59.1564L150.069 68.9201V111.995C150.069 138.702 144.264 143.009 132.363 147.317V149.327C152.392 149.901 170.969 143.583 170.969 109.123V62.8896L177.355 58.0077L175.903 56.5719L170.098 60.8794L152.101 45.9467L132.073 60.8794V2.87167H130.621L105.658 19.8145V21.2504C108.561 22.6862 112.915 24.122 112.915 31.8755L112.044 111.708ZM242.665 103.954L224.959 117.451L207.253 103.38V94.7651L240.924 72.0789V71.5046L223.508 45.9467L186.353 65.7612V112.282L179.096 118.026L180.548 119.461L186.934 114.58L211.316 132.097L243.536 106.539L242.665 103.954ZM206.962 91.8934V57.1462L208.414 56.5719L224.088 81.2682L206.962 91.8934ZM379.092 11.1995C379.092 9.18934 378.512 6.89201 377.641 4.88184H376.189C374.158 10.6252 371.255 13.4968 363.998 13.4968C357.612 13.4968 353.258 10.0508 350.355 7.17917L329.746 30.4397L331.198 31.8755L338.454 25.5579C342.808 29.0039 346.292 31.8755 356.161 32.737V91.3191L314.072 19.8145C310.588 14.0712 305.364 6.31767 295.494 6.31767C284.174 6.31767 274.015 16.0813 275.466 31.8755H277.498C278.078 27.568 280.4 22.6862 285.335 22.6862C288.818 22.6862 292.592 26.1322 294.624 29.8654V53.1259C281.852 53.1259 273.144 58.8692 273.144 69.4944C273.144 75.2377 276.046 83.5656 284.464 85.8629V84.4271C283.013 82.9912 282.432 81.5554 282.432 79.5452C282.432 76.0992 285.335 73.2276 290.27 73.2276H293.753V102.806C278.659 102.806 266.758 111.421 266.758 125.492C266.758 138.989 278.078 145.306 291.14 144.445V143.009C283.303 142.435 279.82 138.702 279.82 133.82C279.82 127.502 284.174 124.63 289.689 124.63C295.494 124.63 300.429 128.076 303.912 132.384L324.521 109.698L323.07 108.262L318.135 114.005C310.298 106.826 305.944 104.816 296.656 103.38V32.4499L354.129 131.235H358.483V32.4499C368.933 31.8755 379.092 23.2605 379.092 11.1995ZM431.05 103.954L413.344 117.451L395.637 103.38V94.7651L429.309 72.0789V71.5046L412.183 45.9467L375.028 65.7612V112.282L367.772 118.026L369.223 119.461L375.609 114.58L399.992 132.097L432.211 106.539C431.921 106.539 431.05 103.954 431.05 103.954ZM395.347 91.8934V57.1462L396.799 56.5719L412.473 81.2682C412.763 81.2682 395.347 91.8934 395.347 91.8934ZM547.449 53.7002L542.514 57.1462L528.871 45.9467L513.197 60.0179L519.583 66.3356V119.174L502.457 108.549V64.8997L508.262 61.4537L491.717 45.9467L476.042 60.0179L482.428 66.3356V117.164L480.396 118.6L465.302 107.975V65.7612C465.302 55.9975 460.368 53.1259 454.562 49.3927C449.628 45.9467 446.725 43.6494 446.725 38.7675C446.725 34.46 451.079 32.4499 453.111 31.014V29.5782C447.305 29.5782 432.502 35.3215 432.502 48.5312C432.502 55.7104 435.985 58.2949 439.758 62.0281C443.242 65.4741 447.015 68.3457 447.015 74.6634V115.728L439.178 121.472L440.629 122.907L447.886 117.164L464.431 131.235L482.138 119.174L502.166 131.235L539.901 109.411V62.0281L549.19 54.8489L547.449 53.7002ZM680.392 14.9327L673.135 21.2504L657.461 7.17917L633.949 24.122V8.61501H631.917L632.497 122.907C630.466 122.907 623.789 121.472 618.855 120.036L617.403 24.6964C617.403 17.5172 612.469 7.75351 599.697 7.75351C586.925 7.75351 578.217 17.5172 578.217 27.568H580.249C580.829 23.2605 583.152 19.8145 587.506 19.8145C591.86 19.8145 595.343 22.6862 595.343 31.8755V59.4436C582.571 60.0179 574.734 67.1971 574.734 76.3864C574.734 82.1297 577.637 90.4576 586.054 90.4576V89.0217C583.152 87.5859 582.571 85.5757 582.571 84.1399C582.571 79.8324 586.054 78.3966 591.86 78.3966H594.762V122.046C584.022 125.492 579.668 133.245 579.668 141.86C579.668 153.921 588.957 162.249 603.18 162.249C613.049 162.249 621.758 160.813 630.175 158.803C637.432 157.367 646.721 155.357 650.784 155.357C656.59 155.357 658.622 158.229 658.622 161.675C658.622 166.557 656.59 168.854 653.687 169.428V170.864C665.008 168.854 672.264 161.675 672.264 151.05C672.264 140.425 661.524 134.107 650.204 134.107C644.399 134.107 632.497 136.117 623.789 137.553C613.92 139.563 603.761 140.999 600.858 140.999C595.924 140.999 590.118 138.989 590.118 131.81C590.118 126.066 595.053 121.184 607.244 121.184C613.63 121.184 621.467 121.759 629.305 124.056C638.013 126.066 645.85 128.364 652.816 128.364C663.556 128.364 672.845 124.918 672.845 109.985V23.2605L681.553 16.0813L680.392 14.9327ZM651.075 58.0077C649.043 60.0179 646.14 62.3152 642.367 62.3152C638.593 62.3152 635.11 60.3051 633.659 58.0077V26.7065L640.915 21.8247L650.784 31.014C651.075 31.014 651.075 58.0077 651.075 58.0077ZM651.075 78.9709C649.623 77.5351 646.14 75.5249 642.367 75.5249C638.593 75.5249 635.11 77.5351 633.659 78.9709V60.5922C635.11 62.0281 638.593 64.0382 642.367 64.0382C646.14 64.0382 649.623 62.0281 651.075 60.5922V78.9709ZM651.075 112.282C651.075 118.026 647.591 123.482 639.754 123.482H633.949V81.8426C635.4 80.4067 638.883 78.3966 642.657 78.3966C646.43 78.3966 649.043 80.4067 651.365 81.8426C651.075 81.8426 651.075 112.282 651.075 112.282ZM748.896 62.0281L725.964 45.6595L690.842 65.4741V111.421L683.585 117.164L684.165 118.6L689.971 114.292L712.902 131.235L748.605 109.985C748.896 110.272 748.896 62.0281 748.896 62.0281ZM710.29 106.539V55.7104L727.996 68.3457V118.6C728.286 118.6 710.29 106.539 710.29 106.539ZM816.819 47.3825H815.367C813.335 48.8184 811.013 50.2542 808.981 50.2542C806.079 50.2542 802.595 48.8184 801.144 46.8082H799.693L787.501 60.3051L775.31 46.8082L753.83 60.8794L754.411 62.3152L760.216 58.8692L767.473 66.6227V111.134L758.184 118.313L759.636 119.749L763.99 116.303L781.116 130.374L803.176 115.441L802.595 114.005L796.21 117.451L787.501 110.272V60.8794C790.985 64.3254 795.339 68.0586 800.273 68.0586C810.143 68.6329 815.948 58.582 816.819 47.3825ZM902.448 115.154L878.066 131.522L845.265 82.1297L868.777 46.2339H870.228C873.131 49.1055 877.485 51.9772 882.42 51.9772C887.354 51.9772 891.128 49.1055 893.16 46.2339H894.611C894.03 60.3051 883.871 68.9201 876.905 68.9201C869.648 68.9201 866.165 65.4741 861.81 63.1767L859.779 66.6227L895.482 118.887L902.738 114.58V115.154H902.448ZM823.785 111.708L814.497 118.887L815.948 120.323L820.302 116.877L835.976 130.948L857.456 116.877L856.005 115.441L850.2 118.887L842.943 111.708V2.87167H842.362L816.528 19.8145V21.2504C819.431 22.6862 823.785 23.2605 823.785 31.8755V111.708ZM1020.88 17.5172C1020.88 3.446 1007.24 0 996.496 0V2.01017C1002.88 2.01017 1007.82 4.02034 1007.82 9.18934C1007.82 12.061 1005.78 16.3685 999.108 16.3685C994.173 16.3685 983.433 13.4968 975.596 10.6252C966.308 7.75351 957.89 4.88184 950.633 4.88184C936.41 4.88184 926.25 15.507 926.25 27.568C926.25 38.1932 934.088 41.6392 936.99 43.075L937.571 41.6392C935.539 40.2034 933.217 38.7675 933.217 34.46C933.217 31.5884 936.119 26.7065 943.086 26.7065C949.472 26.7065 958.18 29.5782 969.501 33.0242C979.37 35.8959 990.11 37.906 995.915 38.7675V60.5922L985.175 69.7816V70.3559L995.915 79.5452V109.985C990.11 113.431 983.724 114.292 978.209 114.292C967.469 114.292 958.18 111.421 950.343 103.093L979.66 89.0217V39.629L943.957 55.136C947.44 45.9467 955.277 39.629 962.534 34.7472L961.953 33.3114C940.474 39.0547 921.316 58.0077 921.316 82.1297C921.316 110.272 944.828 131.522 971.242 131.522C999.689 131.522 1018.27 108.836 1018.27 85.5757H1016.81C1012.46 94.7651 1006.07 103.093 998.237 107.4V78.3966L1009.56 69.2072V68.6329L998.818 59.4436V38.1932C1010.14 38.1932 1020.88 31.014 1020.88 17.5172ZM958.76 95.3394L950.052 99.6469C945.118 93.3292 942.215 84.7142 942.215 72.9404C942.215 68.0586 942.796 62.3152 944.247 58.0077L959.341 51.69L958.76 95.3394ZM1045.84 10.6252H1044.97L1030.75 22.6862V23.2605L1042.94 36.7574H1044.39L1058.61 24.6964V24.122L1045.84 10.6252ZM1067.32 115.154L1061.52 118.6L1054.26 111.421V62.6024L1061.52 57.7205L1060.06 56.2847L1055.13 60.5922L1042.36 45.6595L1021.75 59.7307L1023.2 61.7409L1028.14 58.2949L1034.52 66.0484V111.995L1025.23 119.174L1025.81 120.61L1030.75 117.164L1046.42 131.235L1067.9 117.164L1067.32 115.154ZM1186.33 114.292L1181.4 117.738L1173.56 110.559V62.8896L1180.82 57.1462L1179.37 55.7104L1173.56 60.5922L1157.01 45.6595L1135.53 60.5922L1118.99 45.6595L1098.96 60.5922L1086.19 45.6595L1065.58 59.7307L1066.16 61.7409L1071.09 58.2949L1078.35 66.0484V111.995L1072.55 117.738L1089.09 131.235L1104.77 117.164L1098.38 110.846V62.8896L1104.77 58.582L1115.51 68.3457V110.846L1109.7 116.59L1126.25 130.087L1141.92 116.015L1135.53 109.698V62.8896L1141.34 59.4436L1152.66 69.2072V111.708L1147.73 116.59L1164.27 131.522L1186.33 116.59V114.292ZM1248.45 103.954L1230.74 117.451L1213.04 103.38V94.7651L1246.71 72.0789V71.5046L1229.58 45.9467L1192.43 65.7612V113.718L1217.39 131.235L1249.61 105.677C1249.32 105.965 1248.45 103.954 1248.45 103.954ZM1212.75 91.8934V57.1462L1214.2 56.5719L1229.87 81.2682L1212.75 91.8934ZM1313.47 85.5757L1299.83 74.9506C1309.12 67.1971 1312.6 56.5719 1312.6 49.3927V45.0852H1311.15C1309.7 48.5312 1306.79 52.2644 1301.28 52.2644C1295.47 52.2644 1291.99 49.3927 1288.51 45.0852L1256.29 62.6024V88.1602L1268.48 97.3496C1256.29 107.975 1254.26 114.867 1254.26 120.61C1254.26 127.789 1257.74 132.671 1263.54 134.681L1264.12 133.245C1262.67 131.81 1261.22 131.235 1261.22 127.502C1261.22 125.492 1264.12 121.759 1269.93 121.759C1277.19 121.759 1281.25 126.641 1283.57 128.938L1314.34 110.559V85.0014C1314.34 85.5757 1313.47 85.5757 1313.47 85.5757ZM1305.63 64.3254C1300.7 72.9404 1289.96 81.2682 1283.57 85.5757L1275.73 79.2581V54.5617C1278.64 61.7409 1286.47 67.1971 1294.31 67.1971C1299.25 67.1971 1302.15 66.3356 1305.63 64.3254ZM1293.44 120.897C1289.96 113.144 1281.25 107.4 1272.83 107.4C1270.8 107.4 1264.99 107.4 1259.19 110.846C1262.67 105.103 1271.96 95.3394 1284.15 88.1602L1292.86 95.3394L1293.44 120.897Z" fill="black"/>
</g>
<defs>
<clipPath id="clip0_204_177">
<rect width="1314.34" height="170.864" fill="white"/>
</clipPath>
</defs>
</svg>
